<?xml version="1.0" encoding="utf-8"?>
<!-- Generator: Adobe Illustrator 16.0.0, SVG Export Plug-In . SVG Version: 6.00 Build 0)  -->
<!DOCTYPE svg PUBLIC "-//W3C//DTD SVG 1.1//EN" "http://www.w3.org/Graphics/SVG/1.1/DTD/svg11.dtd">
<svg version="1.1" id="Artwork" xmlns="http://www.w3.org/2000/svg" xmlns:xlink="http://www.w3.org/1999/xlink" x="0px" y="0px"
	 width="512px" height="512px" viewBox="0 0 512 512" enable-background="new 0 0 512 512" xml:space="preserve">
<g>
	<path d="M405.99,205.46c-49.685-25.217-129.596-41.962-199.958-41.962c-102.908,0-140.938,38.618-140.938,86.256
		c0,47.638,38.029,86.256,140.938,86.256c74.453,0,160.193-20.188,205.663-45.639c23.142-12.953,39.21-27.641,39.21-41.058
		C450.905,236.386,433.373,219.357,405.99,205.46z"/>
	<path d="M376.483,184.266c21.772,7.084,22.888,7.911,36.831,15.249c3.427,1.804,6.567,4.299,8.597,3.928
		c2.123-0.389,2.855-5.461,2.855-5.461l9.876-41.902c1.443-4.537-1.304-8.305-6.104-8.374l-13.963-0.197
		c-4.8-0.069-11.047,2.979-13.877,6.772l-23.143,25.222C377.557,179.501,372.928,183.109,376.483,184.266z"/>
	<path d="M426.04,302.141c0,0-0.731-5.072-2.854-5.461c-2.029-0.372-5.171,2.124-8.598,3.927
		c-13.943,7.338-15.059,8.165-36.831,15.249c-3.555,1.157,1.074,4.765,1.074,4.765l23.142,25.222
		c2.83,3.792,9.077,6.841,13.878,6.772l13.962-0.197c4.8-0.069,7.548-3.837,6.104-8.375L426.04,302.141z"/>
	<path d="M336.945,330.54c-44.984,11.198-84.269,17.542-130.395,17.542c-18.129,0-28.791-1.507-44.784-4.087
		c-4.919-0.793-4.919,2.723-4.919,2.723l8.855,21.053c3.817,5.939,8.529,7.058,18.954,7.058h123.186
		c10.421,0,16.43-2.392,18.947-7.058c0,0,7.332-15.981,14.186-29.503C342.993,334.286,341.467,329.533,336.945,330.54z
		 M203.503,370.825c-4.395,0-7.958-3.563-7.958-7.958c0-4.395,3.563-7.958,7.958-7.958c4.396,0,7.958,3.563,7.958,7.958
		C211.461,367.262,207.898,370.825,203.503,370.825z M233.053,370.825c-4.395,0-7.957-3.563-7.957-7.958
		c0-4.395,3.563-7.958,7.957-7.958c4.396,0,7.958,3.563,7.958,7.958C241.011,367.262,237.448,370.825,233.053,370.825z
		 M262.604,370.825c-4.396,0-7.958-3.563-7.958-7.958c0-4.395,3.563-7.958,7.958-7.958c4.395,0,7.958,3.563,7.958,7.958
		C270.562,367.262,266.998,370.825,262.604,370.825z M292.153,370.825c-4.395,0-7.958-3.563-7.958-7.958
		c0-4.395,3.563-7.958,7.958-7.958c4.396,0,7.958,3.563,7.958,7.958C300.111,367.262,296.549,370.825,292.153,370.825z"/>
</g>
</svg>
