<?xml version="1.0" encoding="UTF-8" standalone="no"?>
<!-- Generator: Adobe Illustrator 16.0.0, SVG Export Plug-In . SVG Version: 6.00 Build 0)  -->

<svg
   xmlns:dc="http://purl.org/dc/elements/1.1/"
   xmlns:cc="http://creativecommons.org/ns#"
   xmlns:rdf="http://www.w3.org/1999/02/22-rdf-syntax-ns#"
   xmlns:svg="http://www.w3.org/2000/svg"
   xmlns="http://www.w3.org/2000/svg"
   xmlns:sodipodi="http://sodipodi.sourceforge.net/DTD/sodipodi-0.dtd"
   xmlns:inkscape="http://www.inkscape.org/namespaces/inkscape"
   version="1.1"
   id="Artwork"
   x="0px"
   y="0px"
   width="512px"
   height="512px"
   viewBox="0 0 512 512"
   enable-background="new 0 0 512 512"
   xml:space="preserve"
   inkscape:version="0.48.5 r10040"
   sodipodi:docname="airship1.svg"><metadata
     id="metadata17"><rdf:RDF><cc:Work
         rdf:about=""><dc:format>image/svg+xml</dc:format><dc:type
           rdf:resource="http://purl.org/dc/dcmitype/StillImage" /></cc:Work></rdf:RDF></metadata><defs
     id="defs15" /><sodipodi:namedview
     pagecolor="#ffffff"
     bordercolor="#666666"
     borderopacity="1"
     objecttolerance="10"
     gridtolerance="10"
     guidetolerance="10"
     inkscape:pageopacity="0"
     inkscape:pageshadow="2"
     inkscape:window-width="640"
     inkscape:window-height="480"
     id="namedview13"
     showgrid="false"
     inkscape:zoom="0.4609375"
     inkscape:cx="256"
     inkscape:cy="256"
     inkscape:window-x="75"
     inkscape:window-y="34"
     inkscape:window-maximized="0"
     inkscape:current-layer="Artwork" /><g
     id="g3"
     transform="matrix(1.2530438,0,0,1.3244868,-66.369944,-91.254181)"><path
       d="m 405.99,205.46 c -49.685,-25.217 -129.596,-41.962 -199.958,-41.962 -102.908,0 -140.938,38.618 -140.938,86.256 0,47.638 38.029,86.256 140.938,86.256 74.453,0 160.193,-20.188 205.663,-45.639 23.142,-12.953 39.21,-27.641 39.21,-41.058 0,-12.927 -17.532,-29.956 -44.915,-43.853 z"
       id="path5"
       inkscape:connector-curvature="0" /><path
       d="m 376.483,184.266 c 21.772,7.084 22.888,7.911 36.831,15.249 3.427,1.804 6.567,4.299 8.597,3.928 2.123,-0.389 2.855,-5.461 2.855,-5.461 l 9.876,-41.902 c 1.443,-4.537 -1.304,-8.305 -6.104,-8.374 l -13.963,-0.197 c -4.8,-0.069 -11.047,2.979 -13.877,6.772 l -23.143,25.222 c 0.002,-0.002 -4.627,3.606 -1.072,4.763 z"
       id="path7"
       inkscape:connector-curvature="0" /><path
       d="m 426.04,302.141 c 0,0 -0.731,-5.072 -2.854,-5.461 -2.029,-0.372 -5.171,2.124 -8.598,3.927 -13.943,7.338 -15.059,8.165 -36.831,15.249 -3.555,1.157 1.074,4.765 1.074,4.765 l 23.142,25.222 c 2.83,3.792 9.077,6.841 13.878,6.772 l 13.962,-0.197 c 4.8,-0.069 7.548,-3.837 6.104,-8.375 l -9.877,-41.902 z"
       id="path9"
       inkscape:connector-curvature="0" /><path
       d="m 336.945,330.54 c -44.984,11.198 -84.269,17.542 -130.395,17.542 -18.129,0 -28.791,-1.507 -44.784,-4.087 -4.919,-0.793 -4.919,2.723 -4.919,2.723 l 8.855,21.053 c 3.817,5.939 8.529,7.058 18.954,7.058 h 123.186 c 10.421,0 16.43,-2.392 18.947,-7.058 0,0 7.332,-15.981 14.186,-29.503 2.018,-3.982 0.492,-8.735 -4.03,-7.728 z m -133.442,40.285 c -4.395,0 -7.958,-3.563 -7.958,-7.958 0,-4.395 3.563,-7.958 7.958,-7.958 4.396,0 7.958,3.563 7.958,7.958 0,4.395 -3.563,7.958 -7.958,7.958 z m 29.55,0 c -4.395,0 -7.957,-3.563 -7.957,-7.958 0,-4.395 3.563,-7.958 7.957,-7.958 4.396,0 7.958,3.563 7.958,7.958 0,4.395 -3.563,7.958 -7.958,7.958 z m 29.551,0 c -4.396,0 -7.958,-3.563 -7.958,-7.958 0,-4.395 3.563,-7.958 7.958,-7.958 4.395,0 7.958,3.563 7.958,7.958 0,4.395 -3.564,7.958 -7.958,7.958 z m 29.549,0 c -4.395,0 -7.958,-3.563 -7.958,-7.958 0,-4.395 3.563,-7.958 7.958,-7.958 4.396,0 7.958,3.563 7.958,7.958 0,4.395 -3.562,7.958 -7.958,7.958 z"
       id="path11"
       inkscape:connector-curvature="0" /></g></svg>