<?xml version="1.0" encoding="UTF-8" standalone="no"?>
<!DOCTYPE svg PUBLIC "-//W3C//DTD SVG 1.1//EN" "http://www.w3.org/Graphics/SVG/1.1/DTD/svg11.dtd">
<svg width="100%" height="100%" viewBox="0 0 512 512" version="1.1" xmlns="http://www.w3.org/2000/svg" xmlns:xlink="http://www.w3.org/1999/xlink" xml:space="preserve" xmlns:serif="http://www.serif.com/" style="fill-rule:evenodd;clip-rule:evenodd;stroke-linejoin:round;stroke-miterlimit:2;">
    <g>
        <path d="M91.4,0C101.5,0 109.7,8.2 109.7,18.3L109.7,493.7C109.7,503.8 101.5,512 91.4,512C81.3,512 73.1,503.8 73.1,493.7L73.1,18.3C73.1,8.2 81.3,0 91.4,0Z" style="fill:rgb(41,73,125);"/>
        <path d="M101,57C136.6,33.3 159,18.3 201.1,18.3C225,18.3 242.8,30.2 255.8,38.8L257,39.6C271.3,49.1 280.6,54.8 292.6,54.8C298.7,54.8 305.6,53.3 314.1,50.2C321.4,47.4 328.7,44.4 335.8,41.1L342.4,38.2C363.2,28.9 389.1,18.3 420.7,18.3C430.8,18.3 439,26.5 439,36.6L439,256C439,266.1 430.8,274.3 420.7,274.3C397.4,274.3 377.6,282 357.3,291L351.5,293.5C343.5,297.2 335,301 326.7,304C315.9,308.2 304.4,310.5 292.7,310.8C268.8,310.8 251,298.9 238,290.3L236.8,289.5C222.5,280 213.2,274.3 201.2,274.3C170.7,274.3 156.7,283.3 119.9,307.8C111.3,313 100,310.2 94.8,301.5C89.6,292.8 92.4,281.6 101.1,276.4C136.7,252.7 159.1,237.7 201.2,237.7C225.1,237.7 242.9,249.6 255.9,258.2L257.1,259C271.4,268.5 280.7,274.2 292.7,274.2C298.8,274.2 305.7,272.7 314.2,269.6C321,267.1 327.9,264 335.9,260.5L342.5,257.6C359.2,250.1 379.1,241.9 402.5,238.9L402.5,56.4C386.7,59.1 372.1,64.9 357.4,71.5L351.6,74C343.6,77.7 335.1,81.5 326.8,84.5C316,88.7 304.5,91 292.8,91.3C268.9,91.3 251.1,79.4 238.1,70.8L236.9,70C222.6,60.5 213.3,54.8 201.3,54.8C170.8,54.8 156.8,63.8 120,88.3C111.5,93.7 100.2,91 94.8,82.5C89.7,74.3 91.8,63.5 99.8,57.9L101,57Z" style="fill:rgb(41,73,125);"/>
    </g>
</svg>
